<?xml version="1.0" encoding="UTF-8" standalone="no"?> <svg xmlns="http://www.w3.org/2000/svg" width="78.071" height="64.735" viewBox="0 0 78.071 64.735">
  <g id="Group_1134" data-name="Group 1134" transform="translate(-650.635 -1386.787)">
    <g id="Group_1128" data-name="Group 1128">
      <g id="Group_1127" data-name="Group 1127">
        <g id="Group_1126" data-name="Group 1126">
          <g id="Group_1125" data-name="Group 1125">
            <g id="Group_1124" data-name="Group 1124">
              <path id="Path_183" data-name="Path 183" d="M705.435,1425.14c-2.263,4.521-3.629,4.761-3.629,4.761a63.114,63.114,0,0,0-9.165,4.521c-3.569.12-10.054-3.865-10.054-3.865.892-.835,5.533-2.619,5.533-2.619,6.546-1.428,6.485-2.736,6.485-2.736.061-5.237-4.76-2.976-4.76-2.976-2.8,1.428-5.594,1.606-11.9,1.428a17.513,17.513,0,0,0-10.888,3.749c-3.808,1.009-16.422,15.351-16.422,15.351l10.235,8.768,5.592-8.53s2.084-4.343,7.8-1.607,9.518,2.382,13.683,3.57,6.127-.714,6.127-.714l8.867-7.377c3.927-2.976,4.878-5.592,4.878-5.592,3.452-9.878,5.354-12.852,5.354-12.852C709.778,1416.98,707.7,1420.61,705.435,1425.14Z"/>
            </g>
          </g>
        </g>
      </g>
    </g>
    <g id="Group_1133" data-name="Group 1133">
      <g id="Group_1132" data-name="Group 1132">
        <g id="Group_1131" data-name="Group 1131">
          <g id="Group_1130" data-name="Group 1130">
            <g id="Group_1129" data-name="Group 1129">
              <path id="Path_184" data-name="Path 184" d="M728.357,1389.58a22.786,22.786,0,0,0-11.04-2.793,22.439,22.439,0,0,0-9.583,2.155c-4.782,2.246-7.726,5.078-8.755,8.422a8.96,8.96,0,0,0,.3,6.076,15.346,15.346,0,0,0-3.427,9.589v.592a23.067,23.067,0,0,0-3.254-2.866,7.085,7.085,0,0,0-.247-4.725c-1.055-2.539-3.561-4.531-7.445-5.92a17.643,17.643,0,0,0-5.941-1.047,17.843,17.843,0,0,0-10.025,3.075.726.726,0,0,0-.29.634.719.719,0,0,0,.376.586,43.623,43.623,0,0,1,7.553,5.411c.21.2,5.253,4.892,10.445,4.892a7.4,7.4,0,0,0,4.76-1.7,16.557,16.557,0,0,1,4.069,4.009v13.038a4.134,4.134,0,0,1-.442.207c-1.551.566-2.783-.179-4.143-.688-.814.245-1.711.481-2.749.711-1.048.4-2.2.888-3.134,1.316,2.1,1.1,4.988,2.4,6.882,2.49a66.918,66.918,0,0,1,9.034-4.419l.106-.043a7.174,7.174,0,0,0,1.807-2.234,5.269,5.269,0,0,0-3.288-.091,8,8,0,0,0-2.615,1.733v-14.964a13.735,13.735,0,0,1,2.948-8.386,9.331,9.331,0,0,0,5.308,1.67c7,0,13.445-7.261,13.717-7.569a56.42,56.42,0,0,1,9.106-7.939.728.728,0,0,0-.03-1.225Z"/>
            </g>
          </g>
        </g>
      </g>
    </g>
  </g>
</svg>
